# Blender v2.82 (sub 7) OBJ File: 'bill.blend'
# www.blender.org
mtllib bill.mtl
o Plane
v -0.121930 0.137914 0.277625
v 0.121930 0.137914 0.277625
v -0.121930 0.013239 -0.277625
v 0.121930 0.013239 -0.277625
v -0.121930 0.014279 0.000000
v 0.121930 0.014279 0.000000
v -0.121930 0.079621 0.138812
v 0.121930 0.079621 0.138812
v 0.121930 0.000048 -0.138812
v -0.121930 0.000048 -0.138812
v -0.121930 0.120783 0.208218
v 0.121930 0.120783 0.208218
v 0.121930 0.039327 0.069406
v -0.121930 0.039327 0.069406
v -0.121930 0.003435 -0.069406
v 0.121930 0.003435 -0.069406
v 0.121930 0.003068 -0.208218
v -0.121930 0.003068 -0.208218
v 0.000000 0.137914 0.277625
v 0.000000 0.013239 -0.277625
v 0.000000 0.014279 0.000000
v 0.000000 0.079621 0.138812
v 0.000000 0.000048 -0.138812
v 0.000000 0.120783 0.208218
v 0.000000 0.039327 0.069406
v 0.000000 0.003435 -0.069406
v 0.000000 0.003068 -0.208218
v -0.060965 0.013239 -0.277625
v -0.060965 0.014279 0.000000
v -0.060965 0.079621 0.138812
v -0.060965 0.000048 -0.138812
v -0.060965 0.120783 0.208218
v -0.060965 0.039327 0.069406
v -0.060965 0.003435 -0.069406
v -0.060965 0.003068 -0.208218
v -0.060965 0.137914 0.277625
v 0.060965 0.137914 0.277625
v 0.060965 0.013239 -0.277625
v 0.060965 0.014279 0.000000
v 0.060965 0.079621 0.138812
v 0.060965 0.000048 -0.138812
v 0.060965 0.120783 0.208218
v 0.060965 0.039327 0.069406
v 0.060965 0.003435 -0.069406
v 0.060965 0.003068 -0.208218
v -0.091447 0.013239 -0.277625
v -0.091447 0.014279 0.000000
v -0.091447 0.079621 0.138812
v -0.091447 0.000048 -0.138812
v -0.091447 0.120783 0.208218
v -0.091447 0.039327 0.069406
v -0.091447 0.003435 -0.069406
v -0.091447 0.003068 -0.208218
v -0.091447 0.137914 0.277625
v -0.030482 0.137914 0.277625
v -0.030482 0.013239 -0.277625
v -0.030482 0.014279 0.000000
v -0.030482 0.079621 0.138812
v -0.030482 0.000048 -0.138812
v -0.030482 0.120783 0.208218
v -0.030482 0.039327 0.069406
v -0.030482 0.003435 -0.069406
v -0.030482 0.003068 -0.208218
v 0.030482 0.013239 -0.277625
v 0.030482 0.014279 0.000000
v 0.030482 0.079621 0.138812
v 0.030482 0.000048 -0.138812
v 0.030482 0.120783 0.208218
v 0.030482 0.039327 0.069406
v 0.030482 0.003435 -0.069406
v 0.030482 0.003068 -0.208218
v 0.030482 0.137914 0.277625
v 0.091447 0.137914 0.277625
v 0.091447 0.013239 -0.277625
v 0.091447 0.014279 0.000000
v 0.091447 0.079621 0.138812
v 0.091447 0.000048 -0.138812
v 0.091447 0.120783 0.208218
v 0.091447 0.039327 0.069406
v 0.091447 0.003435 -0.069406
v 0.091447 0.003068 -0.208218
vt 0.864198 0.559258
vt 0.864109 0.496726
vt 0.987113 0.496768
vt 0.987202 0.559300
vt 0.372183 0.559088
vt 0.372094 0.496556
vt 0.495097 0.496598
vt 0.495187 0.559131
vt 0.126175 0.559003
vt 0.126086 0.496471
vt 0.249090 0.496513
vt 0.249179 0.559046
vt 0.618191 0.559173
vt 0.618101 0.496641
vt 0.741105 0.496683
vt 0.741194 0.559215
vt 0.003171 0.558961
vt 0.003082 0.496429
vt 0.741551 0.809344
vt 0.741462 0.746812
vt 0.864466 0.746855
vt 0.864555 0.809387
vt 0.495544 0.809259
vt 0.495454 0.746727
vt 0.618458 0.746770
vt 0.618548 0.809302
vt 0.249536 0.809175
vt 0.249447 0.746642
vt 0.372451 0.746685
vt 0.372540 0.809217
vt 0.003528 0.809090
vt 0.003439 0.746557
vt 0.126443 0.746600
vt 0.126532 0.809132
vt 0.987470 0.746897
vt 0.987559 0.809429
vt 0.864734 0.934451
vt 0.864645 0.871919
vt 0.987649 0.871961
vt 0.987738 0.934494
vt 0.372719 0.934281
vt 0.372629 0.871749
vt 0.495633 0.871792
vt 0.495722 0.934324
vt 0.126710 0.934197
vt 0.126621 0.871664
vt 0.249625 0.871707
vt 0.249715 0.934239
vt 0.618726 0.934366
vt 0.618637 0.871834
vt 0.741641 0.871877
vt 0.741730 0.934409
vt 0.003707 0.934154
vt 0.003617 0.871622
vt 0.741373 0.684280
vt 0.741284 0.621748
vt 0.864288 0.621790
vt 0.864377 0.684322
vt 0.495365 0.684195
vt 0.495276 0.621663
vt 0.618280 0.621705
vt 0.618369 0.684238
vt 0.249358 0.684110
vt 0.249268 0.621578
vt 0.372272 0.621620
vt 0.372361 0.684153
vt 0.003350 0.684025
vt 0.003260 0.621493
vt 0.126264 0.621535
vt 0.126354 0.684068
vt 0.987292 0.621833
vt 0.987381 0.684365
vt 0.741819 0.996941
vt 0.864823 0.996983
vt 0.495811 0.996856
vt 0.618815 0.996898
vt 0.249804 0.996771
vt 0.372808 0.996814
vt 0.003796 0.996686
vt 0.126800 0.996729
vt 0.987827 0.997026
vn 0.0000 0.9955 0.0943
vn 0.0000 0.9894 0.1450
vn 0.0000 0.9064 -0.4225
vn 0.0000 0.9687 -0.2480
vn 0.0000 0.9254 -0.3789
vn 0.0000 0.8625 -0.5061
vn 0.0000 0.9948 -0.1017
vn 0.0000 1.0000 -0.0026
vn 0.0000 0.9709 -0.2396
usemtl dollar-bill
s 1
f 81/1/1 17/2/1 4/3/2 74/4/2
f 79/5/3 13/6/3 6/7/4 75/8/4
f 78/9/5 12/10/5 8/11/6 76/12/6
f 80/13/7 16/14/7 9/15/8 77/16/8
f 73/17/9 2/18/9 12/10/5 78/9/5
f 76/12/6 8/11/6 13/6/3 79/5/3
f 75/8/4 6/7/4 16/14/7 80/13/7
f 77/16/8 9/15/8 17/2/1 81/1/1
f 59/19/8 23/20/8 27/21/1 63/22/1
f 57/23/4 21/24/4 26/25/7 62/26/7
f 58/27/6 22/28/6 25/29/3 61/30/3
f 55/31/9 19/32/9 24/33/5 60/34/5
f 62/26/7 26/25/7 23/20/8 59/19/8
f 60/34/5 24/33/5 22/28/6 58/27/6
f 61/30/3 25/29/3 21/24/4 57/23/4
f 63/22/1 27/21/1 20/35/2 56/36/2
f 53/37/1 35/38/1 28/39/2 46/40/2
f 51/41/3 33/42/3 29/43/4 47/44/4
f 50/45/5 32/46/5 30/47/6 48/48/6
f 52/49/7 34/50/7 31/51/8 49/52/8
f 54/53/9 36/54/9 32/46/5 50/45/5
f 48/48/6 30/47/6 33/42/3 51/41/3
f 47/44/4 29/43/4 34/50/7 52/49/7
f 49/52/8 31/51/8 35/38/1 53/37/1
f 67/55/8 41/56/8 45/57/1 71/58/1
f 65/59/4 39/60/4 44/61/7 70/62/7
f 66/63/6 40/64/6 43/65/3 69/66/3
f 72/67/9 37/68/9 42/69/5 68/70/5
f 70/62/7 44/61/7 41/56/8 67/55/8
f 68/70/5 42/69/5 40/64/6 66/63/6
f 69/66/3 43/65/3 39/60/4 65/59/4
f 71/58/1 45/57/1 38/71/2 64/72/2
f 10/73/8 49/52/8 53/37/1 18/74/1
f 5/75/4 47/44/4 52/49/7 15/76/7
f 7/77/6 48/48/6 51/41/3 14/78/3
f 1/79/9 54/53/9 50/45/5 11/80/5
f 15/76/7 52/49/7 49/52/8 10/73/8
f 11/80/5 50/45/5 48/48/6 7/77/6
f 14/78/3 51/41/3 47/44/4 5/75/4
f 18/74/1 53/37/1 46/40/2 3/81/2
f 35/38/1 63/22/1 56/36/2 28/39/2
f 33/42/3 61/30/3 57/23/4 29/43/4
f 32/46/5 60/34/5 58/27/6 30/47/6
f 34/50/7 62/26/7 59/19/8 31/51/8
f 36/54/9 55/31/9 60/34/5 32/46/5
f 30/47/6 58/27/6 61/30/3 33/42/3
f 29/43/4 57/23/4 62/26/7 34/50/7
f 31/51/8 59/19/8 63/22/1 35/38/1
f 27/21/1 71/58/1 64/72/2 20/35/2
f 25/29/3 69/66/3 65/59/4 21/24/4
f 24/33/5 68/70/5 66/63/6 22/28/6
f 26/25/7 70/62/7 67/55/8 23/20/8
f 19/32/9 72/67/9 68/70/5 24/33/5
f 22/28/6 66/63/6 69/66/3 25/29/3
f 21/24/4 65/59/4 70/62/7 26/25/7
f 23/20/8 67/55/8 71/58/1 27/21/1
f 41/56/8 77/16/8 81/1/1 45/57/1
f 39/60/4 75/8/4 80/13/7 44/61/7
f 40/64/6 76/12/6 79/5/3 43/65/3
f 37/68/9 73/17/9 78/9/5 42/69/5
f 44/61/7 80/13/7 77/16/8 41/56/8
f 42/69/5 78/9/5 76/12/6 40/64/6
f 43/65/3 79/5/3 75/8/4 39/60/4
f 45/57/1 81/1/1 74/4/2 38/71/2
