# Blender v2.82 (sub 7) OBJ File: ''
# www.blender.org
mtllib untitled.mtl
o Cone
v 0.000000 1.000000 -1.000000
v 0.500000 0.866025 -1.000000
v 0.866025 0.500000 -1.000000
v 1.000000 0.000000 -1.000000
v 0.866025 -0.500000 -1.000000
v 0.500000 -0.866025 -1.000000
v 0.000000 -0.000000 1.000000
v 0.000000 -1.000000 -1.000000
v -0.500000 -0.866025 -1.000000
v -0.866025 -0.500000 -1.000000
v -1.000000 -0.000000 -1.000000
v -0.866026 0.500000 -1.000000
v -0.500001 0.866025 -1.000000
vt 0.250000 0.490000
vt 0.250000 0.250000
vt 0.370000 0.457846
vt 0.457846 0.370000
vt 0.490000 0.250000
vt 0.457846 0.130000
vt 0.370000 0.042154
vt 0.250000 0.010000
vt 0.130000 0.042154
vt 0.042154 0.130000
vt 0.010000 0.250000
vt 0.042154 0.370000
vt 0.130000 0.457846
vt 0.750000 0.490000
vt 0.870000 0.457846
vt 0.957846 0.370000
vt 0.990000 0.250000
vt 0.957846 0.130000
vt 0.870000 0.042154
vt 0.750000 0.010000
vt 0.630000 0.042154
vt 0.542154 0.130000
vt 0.510000 0.250000
vt 0.542154 0.370000
vt 0.630000 0.457846
vn 0.2331 0.8698 0.4349
vn 0.6367 0.6367 0.4349
vn 0.8698 0.2331 0.4349
vn 0.8698 -0.2331 0.4349
vn 0.6367 -0.6367 0.4349
vn 0.2331 -0.8698 0.4349
vn -0.2331 -0.8698 0.4349
vn -0.6367 -0.6367 0.4349
vn -0.8698 -0.2331 0.4349
vn -0.8698 0.2331 0.4349
vn -0.6367 0.6367 0.4349
vn -0.2331 0.8698 0.4349
vn -0.0000 0.0000 -1.0000
usemtl None
s off
f 1/1/1 7/2/1 2/3/1
f 2/3/2 7/2/2 3/4/2
f 3/4/3 7/2/3 4/5/3
f 4/5/4 7/2/4 5/6/4
f 5/6/5 7/2/5 6/7/5
f 6/7/6 7/2/6 8/8/6
f 8/8/7 7/2/7 9/9/7
f 9/9/8 7/2/8 10/10/8
f 10/10/9 7/2/9 11/11/9
f 11/11/10 7/2/10 12/12/10
f 12/12/11 7/2/11 13/13/11
f 13/13/12 7/2/12 1/1/12
f 1/14/13 2/15/13 3/16/13 4/17/13 5/18/13 6/19/13 8/20/13 9/21/13 10/22/13 11/23/13 12/24/13 13/25/13
